<svg xmlns="http://www.w3.org/2000/svg" viewBox="0 0 512 512">
  <defs>
    <linearGradient id="bg" x1="0%" y1="0%" x2="100%" y2="100%">
      <stop offset="0%" style="stop-color:#6366f1"/>
      <stop offset="100%" style="stop-color:#8b5cf6"/>
    </linearGradient>
  </defs>
  <rect width="512" height="512" rx="96" fill="url(#bg)"/>
  <!-- Book shape -->
  <path d="M160 120 C160 120 256 140 256 140 C256 140 352 120 352 120 L352 340 C352 340 256 360 256 360 C256 360 160 340 160 340 Z" fill="none" stroke="white" stroke-width="16" stroke-linejoin="round"/>
  <line x1="256" y1="140" x2="256" y2="360" stroke="white" stroke-width="12"/>
  <!-- Lens / magnifying glass -->
  <circle cx="330" cy="340" r="50" fill="none" stroke="white" stroke-width="14"/>
  <line x1="366" y1="376" x2="400" y2="410" stroke="white" stroke-width="16" stroke-linecap="round"/>
  <!-- Text lines on left page -->
  <line x1="185" y1="180" x2="240" y2="190" stroke="white" stroke-width="8" stroke-linecap="round" opacity="0.7"/>
  <line x1="185" y1="210" x2="235" y2="220" stroke="white" stroke-width="8" stroke-linecap="round" opacity="0.7"/>
  <line x1="185" y1="240" x2="230" y2="250" stroke="white" stroke-width="8" stroke-linecap="round" opacity="0.7"/>
  <line x1="185" y1="270" x2="225" y2="280" stroke="white" stroke-width="8" stroke-linecap="round" opacity="0.5"/>
</svg>
